<mxfile host="app.diagrams.net" agent="Mozilla/5.0 (Windows NT 10.0; Win64; x64) AppleWebKit/537.36 (KHTML, like Gecko) Chrome/136.0.0.0 Safari/537.36 Edg/136.0.0.0" version="27.1.1">
  <diagram name="페이지-1" id="-ch75uyov_KKb5cKO1cn">
    <mxGraphModel dx="1144" dy="782" grid="1" gridSize="10" guides="1" tooltips="1" connect="1" arrows="1" fold="1" page="1" pageScale="1" pageWidth="827" pageHeight="1169" math="0" shadow="0">
      <root>
        <mxCell id="0" />
        <mxCell id="1" parent="0" />
        <mxCell id="_JP62u0krRZKr9iEF8WZ-13" style="rounded=0;orthogonalLoop=1;jettySize=auto;html=1;entryX=0;entryY=0.5;entryDx=0;entryDy=0;" edge="1" parent="1" source="_JP62u0krRZKr9iEF8WZ-1" target="_JP62u0krRZKr9iEF8WZ-3">
          <mxGeometry relative="1" as="geometry" />
        </mxCell>
        <mxCell id="_JP62u0krRZKr9iEF8WZ-1" value="증권사 직원" style="shape=umlActor;verticalLabelPosition=bottom;verticalAlign=top;html=1;outlineConnect=0;" vertex="1" parent="1">
          <mxGeometry x="160" y="260" width="80" height="160" as="geometry" />
        </mxCell>
        <mxCell id="_JP62u0krRZKr9iEF8WZ-2" value="frame" style="shape=umlFrame;whiteSpace=wrap;html=1;pointerEvents=0;" vertex="1" parent="1">
          <mxGeometry x="320" y="160" width="560" height="800" as="geometry" />
        </mxCell>
        <mxCell id="_JP62u0krRZKr9iEF8WZ-3" value="사용자 등록하기" style="ellipse;whiteSpace=wrap;html=1;" vertex="1" parent="1">
          <mxGeometry x="510" y="200" width="140" height="70" as="geometry" />
        </mxCell>
        <mxCell id="_JP62u0krRZKr9iEF8WZ-40" style="rounded=0;orthogonalLoop=1;jettySize=auto;html=1;entryX=0.5;entryY=1;entryDx=0;entryDy=0;" edge="1" parent="1" source="_JP62u0krRZKr9iEF8WZ-4" target="_JP62u0krRZKr9iEF8WZ-3">
          <mxGeometry relative="1" as="geometry" />
        </mxCell>
        <mxCell id="_JP62u0krRZKr9iEF8WZ-4" value="사용자 삭제하기" style="ellipse;whiteSpace=wrap;html=1;" vertex="1" parent="1">
          <mxGeometry x="700" y="330" width="140" height="70" as="geometry" />
        </mxCell>
        <mxCell id="_JP62u0krRZKr9iEF8WZ-39" value="" style="rounded=0;orthogonalLoop=1;jettySize=auto;html=1;" edge="1" parent="1" source="_JP62u0krRZKr9iEF8WZ-5" target="_JP62u0krRZKr9iEF8WZ-3">
          <mxGeometry relative="1" as="geometry" />
        </mxCell>
        <mxCell id="_JP62u0krRZKr9iEF8WZ-5" value="사용자 수정하기" style="ellipse;whiteSpace=wrap;html=1;" vertex="1" parent="1">
          <mxGeometry x="540" y="330" width="140" height="70" as="geometry" />
        </mxCell>
        <mxCell id="_JP62u0krRZKr9iEF8WZ-7" value="주식 거래" style="ellipse;whiteSpace=wrap;html=1;" vertex="1" parent="1">
          <mxGeometry x="487" y="725" width="140" height="70" as="geometry" />
        </mxCell>
        <mxCell id="_JP62u0krRZKr9iEF8WZ-18" value="주식 조회" style="ellipse;whiteSpace=wrap;html=1;" vertex="1" parent="1">
          <mxGeometry x="487" y="460" width="140" height="70" as="geometry" />
        </mxCell>
        <mxCell id="_JP62u0krRZKr9iEF8WZ-35" style="rounded=0;orthogonalLoop=1;jettySize=auto;html=1;entryX=0;entryY=0.5;entryDx=0;entryDy=0;" edge="1" parent="1" source="_JP62u0krRZKr9iEF8WZ-20" target="_JP62u0krRZKr9iEF8WZ-18">
          <mxGeometry relative="1" as="geometry" />
        </mxCell>
        <mxCell id="_JP62u0krRZKr9iEF8WZ-36" style="rounded=0;orthogonalLoop=1;jettySize=auto;html=1;" edge="1" parent="1" source="_JP62u0krRZKr9iEF8WZ-20" target="_JP62u0krRZKr9iEF8WZ-7">
          <mxGeometry relative="1" as="geometry" />
        </mxCell>
        <mxCell id="_JP62u0krRZKr9iEF8WZ-20" value="사용자" style="shape=umlActor;verticalLabelPosition=bottom;verticalAlign=top;html=1;outlineConnect=0;" vertex="1" parent="1">
          <mxGeometry x="160" y="680" width="80" height="160" as="geometry" />
        </mxCell>
        <mxCell id="_JP62u0krRZKr9iEF8WZ-29" style="rounded=0;orthogonalLoop=1;jettySize=auto;html=1;entryX=0.5;entryY=1;entryDx=0;entryDy=0;" edge="1" parent="1" source="_JP62u0krRZKr9iEF8WZ-27" target="_JP62u0krRZKr9iEF8WZ-7">
          <mxGeometry relative="1" as="geometry" />
        </mxCell>
        <mxCell id="_JP62u0krRZKr9iEF8WZ-27" value="주식 구매하기" style="ellipse;whiteSpace=wrap;html=1;" vertex="1" parent="1">
          <mxGeometry x="387" y="830" width="140" height="70" as="geometry" />
        </mxCell>
        <mxCell id="_JP62u0krRZKr9iEF8WZ-30" style="rounded=0;orthogonalLoop=1;jettySize=auto;html=1;entryX=0.5;entryY=1;entryDx=0;entryDy=0;" edge="1" parent="1" source="_JP62u0krRZKr9iEF8WZ-28" target="_JP62u0krRZKr9iEF8WZ-7">
          <mxGeometry relative="1" as="geometry" />
        </mxCell>
        <mxCell id="_JP62u0krRZKr9iEF8WZ-28" value="주식 구매하기" style="ellipse;whiteSpace=wrap;html=1;" vertex="1" parent="1">
          <mxGeometry x="587" y="830" width="140" height="70" as="geometry" />
        </mxCell>
        <mxCell id="_JP62u0krRZKr9iEF8WZ-33" style="rounded=0;orthogonalLoop=1;jettySize=auto;html=1;entryX=0.5;entryY=1;entryDx=0;entryDy=0;" edge="1" parent="1" source="_JP62u0krRZKr9iEF8WZ-31" target="_JP62u0krRZKr9iEF8WZ-18">
          <mxGeometry relative="1" as="geometry" />
        </mxCell>
        <mxCell id="_JP62u0krRZKr9iEF8WZ-31" value="전체 주식 현재가 조회하기" style="ellipse;whiteSpace=wrap;html=1;" vertex="1" parent="1">
          <mxGeometry x="404" y="590" width="140" height="70" as="geometry" />
        </mxCell>
        <mxCell id="_JP62u0krRZKr9iEF8WZ-32" value="내가 가진 주식 조회하기" style="ellipse;whiteSpace=wrap;html=1;" vertex="1" parent="1">
          <mxGeometry x="570" y="590" width="140" height="70" as="geometry" />
        </mxCell>
        <mxCell id="_JP62u0krRZKr9iEF8WZ-34" style="rounded=0;orthogonalLoop=1;jettySize=auto;html=1;entryX=0.571;entryY=1;entryDx=0;entryDy=0;entryPerimeter=0;" edge="1" parent="1" source="_JP62u0krRZKr9iEF8WZ-32" target="_JP62u0krRZKr9iEF8WZ-18">
          <mxGeometry relative="1" as="geometry" />
        </mxCell>
        <mxCell id="_JP62u0krRZKr9iEF8WZ-38" style="rounded=0;orthogonalLoop=1;jettySize=auto;html=1;entryX=0.5;entryY=1;entryDx=0;entryDy=0;" edge="1" parent="1" source="_JP62u0krRZKr9iEF8WZ-37" target="_JP62u0krRZKr9iEF8WZ-3">
          <mxGeometry relative="1" as="geometry" />
        </mxCell>
        <mxCell id="_JP62u0krRZKr9iEF8WZ-37" value="사용자 등록하기" style="ellipse;whiteSpace=wrap;html=1;" vertex="1" parent="1">
          <mxGeometry x="380" y="330" width="140" height="70" as="geometry" />
        </mxCell>
      </root>
    </mxGraphModel>
  </diagram>
</mxfile>
